<svg xmlns="http://www.w3.org/2000/svg" width="65" height="65" viewBox="0 0 65 65">
  <g id="Group_44250" data-name="Group 44250" transform="translate(2933 2958)">
    <rect id="Rectangle_5488" data-name="Rectangle 5488" width="65" height="65" rx="5" transform="translate(-2933 -2958)" fill="#fcbaba"/>
    <g id="Group_44200" data-name="Group 44200" transform="translate(-3801 -4880)">
      <path id="Path_29213" data-name="Path 29213" d="M-10888.052,174.84a5.617,5.617,0,0,0,1.688-1.542c.5-.838,2.224-5.407.68-7.558a5.86,5.86,0,0,0-5.165-2.228c-.762.181-3.314-.177-7.152,5.334s-1.474,14.843-1.323,15.2,2.521,6.146,6.729,7.614a5.5,5.5,0,0,0,6.46-2.061s1.562-2.878.955-5.1a8.052,8.052,0,0,0-2.693-3.773l1.738-.537,1.273-2.082a18.83,18.83,0,0,0-1.273-2.553C-10886.569,175-10888.052,174.84-10888.052,174.84Z" transform="translate(11782 1774)" fill="#fa5858"/>
      <path id="Path_29214" data-name="Path 29214" d="M-10874.053,178.525c.992.284-1.12-.113-1.43-1.129a36.413,36.413,0,0,1-1.429-4.635c.067-.518.52-5.413,4.683-5.609a7.178,7.178,0,0,1,6.118,2.58s3.1,4.232,3.673,6.533,1.291,8.429-.906,12.726-4.349,6.319-6.683,6.718a5.447,5.447,0,0,1-5.654-2.334c-1-1.755-1.625-3.8-.891-4.964s1.541-3.548,1.828-3.721-1.639-1.519-1.639-1.519l-.529-1.376a12.786,12.786,0,0,1,.529-1.831C-10876.239,179.811-10875.045,178.24-10874.053,178.525Z" transform="translate(11782 1774)" fill="#fa5858"/>
      <g id="Group_43634" data-name="Group 43634" transform="translate(-11.175 1546.979)">
        <path id="Path_25162" data-name="Path 25162" d="M922.967,411.46c-1.483.206-1.594,1.242-1.6,2.314-.012,3.285.007,6.57-.01,9.855,0,.632-.114,1.263-.165,1.791-.881.315-1.177-.065-1.258-.591a12.129,12.129,0,0,1-.083-1.819c-.006-2.737,0-5.475,0-8.212,0-3.384.036-3.449,2.874-5.234-1.229-.771-2.746-1.3-2.8-2.987a24.571,24.571,0,0,1,.2-3.419c.016-.153.453-.262.735-.411.855.986.395,2.065.5,3.042.16,1.484.481,1.785,2.086,1.749a2.023,2.023,0,0,0,.449-2.189c-.234-.753-.516-1.491-.768-2.238-.82-2.425-.642-4.749,1.18-6.628,1.838-1.895,4.212-2.054,6.616-1.32a9.48,9.48,0,0,1,5.428,4.636c3.758,6.552,3.863,13.193.129,19.778a9.738,9.738,0,0,1-5.991,5.025,5.644,5.644,0,0,1-5.946-1.824,6.249,6.249,0,0,1-1.528-6.416,12.536,12.536,0,0,1,.677-1.493C924.475,413.229,924.424,412.959,922.967,411.46Zm5.329.487c-.166.286-.225.542-.346.575-2.139.589-2.732,2.49-3.42,4.2a4.645,4.645,0,0,0,1.28,5.182,4.246,4.246,0,0,0,5.01,1.092,9,9,0,0,0,3.891-3.218,18.009,18.009,0,0,0,.244-19.5,9.532,9.532,0,0,0-3.887-3.5c-2.667-1.224-5.6-.265-6.512,2.1a7.076,7.076,0,0,0,2.322,7.451c.452.314.732.644.284,1.289H925.4c-1.53,2.317-1.525,2.395.2,4.256C926.462,411.749,927.328,410.737,928.3,411.946Z" transform="translate(-7.054 -1.25)" fill="#3b4157"/>
        <path id="Path_25163" data-name="Path 25163" d="M910.447,420.735a11.413,11.413,0,0,1-.332-1.869c-.032-3.411-.018-6.821-.018-10.232,0-1.051-.194-1.961-1.46-2.132-1.526,1.328-1.674,1.683-.723,3.386a6.43,6.43,0,0,1-.145,6.922,5.962,5.962,0,0,1-7.448,2.551,10.629,10.629,0,0,1-4.775-3.837c-4.706-6.267-4.458-16.132.575-22.129,1.7-2.025,3.733-3.489,6.524-3.54,4.676-.086,7.4,3.722,5.846,8.167a16.22,16.22,0,0,0-.841,2.776c-.184,1.182.229,1.852.909,1.9.779.054,1.409-.625,1.513-1.733.068-.725.015-1.461.055-2.191.033-.612.245-1.078,1.127-.869.615,1.217.332,2.535.226,3.841-.127,1.575-1.53,2.023-2.538,2.736.057.175.061.268.1.281,2.325.851,2.638,2.718,2.588,4.871-.072,3.1-.013,6.212-.025,9.319C911.6,419.65,911.716,420.45,910.447,420.735Zm-5.962-17.972c-.536-.7-.282-1.059.271-1.425a3.711,3.711,0,0,0,1.3-1.176,11.719,11.719,0,0,0,1.094-2.889c.969-4.45-1.887-6.645-5.536-5.878a7.188,7.188,0,0,0-3.577,2.069c-5.925,5.823-5.883,17.04.13,22.8a8.674,8.674,0,0,0,2.417,1.586,4.519,4.519,0,0,0,6.055-2.072,5.863,5.863,0,0,0-2.533-7.914,4.729,4.729,0,0,1-.89-.775c.984-1.39,1.961-.116,2.834-.2,1.657-2.007,1.661-2.18.119-4.234Z" transform="translate(0)" fill="#3b4157"/>
        <path id="Path_25166" data-name="Path 25166" d="M938.173,420.483c-.97-.355-.743-.923-.529-1.531a31.355,31.355,0,0,0,1.005-3.112,16.359,16.359,0,0,0-.755-10c-.249-.633-.83-1.271.017-2.118.305.2.784.324.914.611a17.641,17.641,0,0,1-.152,15.8C938.6,420.267,938.389,420.334,938.173,420.483Z" transform="translate(-11.54 -3.534)" fill="#3b4157"/>
        <path id="Path_25167" data-name="Path 25167" d="M899.661,399.179a17.358,17.358,0,0,0-.142,15.565c-.394.744-.841.824-1.244.37a4.121,4.121,0,0,1-.684-1.268,18.011,18.011,0,0,1,.174-13.825C898.035,399.372,898.28,398.6,899.661,399.179Z" transform="translate(-1.051 -2.325)" fill="#3b4157"/>
      </g>
    </g>
  </g>
</svg>
