<svg xmlns="http://www.w3.org/2000/svg" width="65" height="65" viewBox="0 0 65 65">
  <g id="Group_44253" data-name="Group 44253" transform="translate(3541 2613)">
    <rect id="Rectangle_5497" data-name="Rectangle 5497" width="65" height="65" rx="5" transform="translate(-3541 -2613)" fill="#fee2ba"/>
    <g id="Group_44209" data-name="Group 44209" transform="translate(-3794 -4872.453)">
      <path id="Path_24414" data-name="Path 24414" d="M38.994,123.841H10.876a4.87,4.87,0,1,1,0-9.741H38.994a4.87,4.87,0,1,1,0,9.741Zm0,0" transform="translate(260.69 2174.022)" fill="#fee2ba"/>
      <path id="Path_24415" data-name="Path 24415" d="M33.684,119.221H5.566a5.56,5.56,0,1,1,0-11.121H33.684a5.56,5.56,0,1,1,0,11.121ZM5.566,109.48a4.186,4.186,0,1,0,0,8.372H33.684a4.186,4.186,0,1,0,0-8.372Zm0,0" transform="translate(266 2179.332)" fill="#3b4157"/>
      <path id="Path_24416" data-name="Path 24416" d="M65.639,6A13.684,13.684,0,0,0,52,19.639v4.474a13.639,13.639,0,1,0,27.278,0V19.639A13.684,13.684,0,0,0,65.639,6Zm0,0" transform="translate(219.98 2269.69)" fill="#fdb44d"/>
      <path id="Path_24418" data-name="Path 24418" d="M60.329,33.132A14.346,14.346,0,0,1,46,18.8V14.329a14.329,14.329,0,1,1,28.658,0V18.8A14.346,14.346,0,0,1,60.329,33.132Zm0-31.752A12.962,12.962,0,0,0,47.38,14.329V18.8a12.949,12.949,0,1,0,25.9,0V14.329A12.962,12.962,0,0,0,60.329,1.38Zm0,0" transform="translate(225.29 2275)" fill="#3b4157"/>
      <path id="Path_24419" data-name="Path 24419" d="M103.925,133.513a2.013,2.013,0,1,1-2.013-2.013,2.007,2.007,0,0,1,2.013,2.013Zm0,0" transform="translate(177.589 2158.623)" fill="#3b4157"/>
      <path id="Path_24420" data-name="Path 24420" d="M210.325,133.513a2.013,2.013,0,1,1-2.013-2.013,2.007,2.007,0,0,1,2.013,2.013Zm0,0" transform="translate(83.425 2158.623)" fill="#3b4157"/>
      <path id="Path_24421" data-name="Path 24421" d="M134.769,215.131a10.685,10.685,0,0,1-3.45-.564l-.736-.253A.691.691,0,0,1,131.02,213l.736.253a9.444,9.444,0,0,0,6.015,0l.736-.253a.691.691,0,0,1,.437,1.311l-.736.253a10.882,10.882,0,0,1-3.439.564Zm0,0" transform="translate(150.85 2086.526)" fill="#3b4157"/>
      <path id="Path_24422" data-name="Path 24422" d="M149.348,194.574a3.174,3.174,0,1,1-3.174-3.174,3.173,3.173,0,0,1,3.174,3.174Zm0,0" transform="translate(139.446 2105.611)" fill="#fee2ba"/>
      <path id="Path_24423" data-name="Path 24423" d="M140.864,193.128a3.864,3.864,0,1,1,3.864-3.864,3.872,3.872,0,0,1-3.864,3.864Zm0-6.348a2.484,2.484,0,1,0,2.484,2.484,2.488,2.488,0,0,0-2.484-2.484Zm0,0" transform="translate(144.755 2110.921)" fill="#3b4157"/>
      <path id="Path_24424" data-name="Path 24424" d="M135.843,9.737a3.753,3.753,0,0,1-3.117-1.645A2.521,2.521,0,1,1,136.9,5.263l.379.575a.687.687,0,1,1-1.139.771l-.391-.575a1.134,1.134,0,0,0-1.53-.345,1.12,1.12,0,0,0-.529.736,1.1,1.1,0,0,0,.172.886A2.394,2.394,0,0,0,137.1,8,2.916,2.916,0,0,0,138,3.883l-1.886-2.806a.689.689,0,0,1,1.15-.759l1.875,2.806A4.311,4.311,0,0,1,137.8,9.2a3.775,3.775,0,0,1-1.955.541Zm0,0" transform="translate(148.926 2274.992)" fill="#3b4157"/>
    </g>
  </g>
</svg>
