<svg xmlns="http://www.w3.org/2000/svg" width="65" height="65" viewBox="0 0 65 65">
  <g id="Group_44248" data-name="Group 44248" transform="translate(3237 3308)">
    <rect id="Rectangle_5493" data-name="Rectangle 5493" width="65" height="65" rx="5" transform="translate(-3237 -3308)" fill="#b3e8ca"/>
    <path id="Path_29854" data-name="Path 29854" d="M-10759.334-415.924l5.385-7.909s-.384-3.434,0-4.344,2.68-3.2,4.94-1.819,1.833,2.291,1.833,2.291a4.744,4.744,0,0,1,2.891.686c.922.825,1.882,2.891,1.086,4.2s-3.62,2.709-3.977,2.1-2.538,3.543-2.538,3.543l-3.8,5.406-1.432-1.8h-1.787l.119-2.115Z" transform="translate(7553.664 -2864.82)" fill="#4bd587"/>
    <path id="Path_29855" data-name="Path 29855" d="M-10755.93-413.614l2.354,5.846,1.645,4.22a21.005,21.005,0,0,1,2.139.855c.8.4,3.478,2.913.3,5.769a9.3,9.3,0,0,1-2.785.926c-.73,0-2.749,1.7-2.749,1.7s-3.038.531-4.227-1.857.769-4.547.769-4.547l-4.072-10.678,2.049-.29.92-1.185,2.1,1.086Z" transform="translate(7552.65 -2859.54)" fill="#4bd587"/>
    <g id="Group_44205" data-name="Group 44205" transform="translate(-3221 -3296)">
      <path id="Path_24965" data-name="Path 24965" d="M818.01,329.4h2.531l1.395-1.627,1.854.953,1.846-2.861c2.046,4.1,3.163,8.007,4.845,11.755,1.8.452,3.328,1.272,3.9,3.266a4.227,4.227,0,0,1-3.051,5.441,7.713,7.713,0,0,0-3.245,1.355,4.171,4.171,0,0,1-5.048-.2,4.065,4.065,0,0,1-1.381-4.843,4.054,4.054,0,0,0-.086-3.611c-1-2.405-1.929-4.838-2.86-7.27C818.457,331.1,818.3,330.4,818.01,329.4Zm4.59.9-2.115,1.441,3.7,9.537c-1.456,2.665-1.474,3.908-.154,4.961,1.414,1.129,2.709.773,4.774-1.331a5.62,5.62,0,0,1,.566-.024c2.1.1,3.344-.7,3.6-2.306.239-1.507-.67-2.677-2.624-3.118a1.889,1.889,0,0,1-1.485-1.392c-.917-2.43-1.883-4.842-2.84-7.257a6.015,6.015,0,0,0-.38-.69l-1.209,1.1Z" transform="translate(-808.132 -305.457)" fill="#3b4157"/>
      <path id="Path_24966" data-name="Path 24966" d="M828.554,319.763l-1.979-.208-.411-2.069c-.959-.371-1.983.856-2.992-.424.286-.535.568-1.183.951-1.763,1.434-2.172,2.893-4.326,4.359-6.476a2.476,2.476,0,0,0,.409-2.222,4.25,4.25,0,0,1,2.034-5.138c1.915-1.031,3.792-.6,5.581,1.173a4.364,4.364,0,0,0,1.645.961,4.549,4.549,0,0,1,3.37,4.433,4.325,4.325,0,0,1-3.709,4.107,2.907,2.907,0,0,0-2.031,1.418c-1.394,2.2-2.84,4.36-4.283,6.525-.357.535-.782,1.024-1.391,1.815Zm7.2-8.944c2.97-.344,4.2-1.125,4.144-2.809-.061-1.714-.3-2.524-3.895-3.142-.118-.181-.263-.4-.406-.622-1.034-1.6-2.3-2.113-3.663-1.49-1.531.7-2.047,1.949-1.328,3.855a2.377,2.377,0,0,1-.357,2.406c-1.29,1.933-2.553,3.885-3.887,5.922l1.554.62.235,2.05,2.412.871Z" transform="translate(-809.072 -300.911)" fill="#3b4157"/>
      <path id="Path_24967" data-name="Path 24967" d="M815.139,324.423c-.8.284-1.26.621-1.642.552-2.234-.4-4.453-.9-6.675-1.372-.685-.146-1.108-.478-.774-1.257C807.6,322.015,813.21,323.148,815.139,324.423Z" transform="translate(-805.933 -304.804)" fill="#3b4157"/>
      <path id="Path_24968" data-name="Path 24968" d="M814.857,316.815c1.071,1.138,2.17,2.252,3.187,3.436a1.06,1.06,0,0,1-.056,1.039,1.026,1.026,0,0,1-1.018.036,42.338,42.338,0,0,1-2.85-3.3c-.138-.177.122-.663.2-1.006Z" transform="translate(-807.416 -303.808)" fill="#3b4157"/>
      <path id="Path_24969" data-name="Path 24969" d="M816.3,327.555c-.115.337-.13.856-.361.982a13.4,13.4,0,0,1-4.67,2.016c0-.516-.127-.971.02-1.092a11.329,11.329,0,0,1,4.65-2.311Z" transform="translate(-806.896 -305.689)" fill="#3b4157"/>
      <path id="Path_24970" data-name="Path 24970" d="M823.151,331.247l1.829.928,1.209-1.1a6.033,6.033,0,0,1,.38.69c.956,2.415,1.923,4.827,2.84,7.257a1.889,1.889,0,0,0,1.485,1.392c1.954.441,2.863,1.611,2.624,3.118-.255,1.61-1.5,2.406-3.6,2.306a5.622,5.622,0,0,0-.566.024c-2.065,2.1-3.36,2.459-4.774,1.331-1.32-1.053-1.3-2.3.154-4.961l-3.7-9.537Z" transform="translate(-808.683 -306.403)" fill="none"/>
      <path id="Path_24971" data-name="Path 24971" d="M836.466,311.174l-5.19,7.662-2.412-.871-.235-2.05-1.554-.62c1.334-2.037,2.6-3.988,3.887-5.922a2.377,2.377,0,0,0,.357-2.406c-.719-1.906-.2-3.156,1.328-3.855,1.364-.622,2.629-.107,3.663,1.49.142.221.288.441.406.622,3.6.617,3.834,1.427,3.895,3.142C840.669,310.048,839.436,310.83,836.466,311.174Z" transform="translate(-809.783 -301.265)" fill="none"/>
    </g>
  </g>
</svg>
