<svg xmlns="http://www.w3.org/2000/svg" width="65" height="65" viewBox="0 0 65 65">
  <g id="Group_44257" data-name="Group 44257" transform="translate(3237 2268)">
    <rect id="Rectangle_5482" data-name="Rectangle 5482" width="65" height="65" rx="5" transform="translate(-3237 -2268)" fill="#fbcbee"/>
    <g id="_017-crutches" data-name="017-crutches" transform="translate(-3217 -2253.353)">
      <path id="Path_24435" data-name="Path 24435" d="M19.854,10.18H8.09A2.09,2.09,0,0,1,8.09,6H19.854a2.09,2.09,0,0,1,0,4.18Z" transform="translate(-5.343 -5.343)" fill="#f76fd3"/>
      <path id="Path_24436" data-name="Path 24436" d="M60.517,302.2H58.8a1.5,1.5,0,0,1,0-3h1.718a1.5,1.5,0,0,1,0,3Z" transform="translate(-51.03 -266.459)" fill="#f76fd3"/>
      <rect id="Rectangle_3132" data-name="Rectangle 3132" width="8.47" height="3.119" transform="translate(4.388 11.512)" fill="#f76fd3"/>
      <path id="Path_24437" data-name="Path 24437" d="M14.51,5.493H2.747A2.747,2.747,0,0,1,2.747,0H14.51a2.747,2.747,0,0,1,0,5.493ZM2.747,1.313a1.434,1.434,0,0,0,0,2.867H14.51a1.434,1.434,0,1,0,0-2.867Z" transform="translate(0 0)" fill="#3b4157"/>
      <path id="Path_24438" data-name="Path 24438" d="M38.991,60.633a.652.652,0,0,1-.547-.3l-4.235-6.413a.7.7,0,0,1-.109-.361V38.857a.657.657,0,0,1,1.313,0v14.51l3.578,5.417,3.578-5.417V38.857a.657.657,0,0,1,1.313,0V53.564a.611.611,0,0,1-.109.361l-4.235,6.413A.638.638,0,0,1,38.991,60.633Z" transform="translate(-30.368 -34.02)" fill="#3b4157"/>
      <path id="Path_24439" data-name="Path 24439" d="M73.457,239.287a.658.658,0,0,1-.657-.657v-6.774a.657.657,0,1,1,1.313,0v6.774A.659.659,0,0,1,73.457,239.287Z" transform="translate(-64.834 -205.9)" fill="#3b4157"/>
      <path id="Path_24440" data-name="Path 24440" d="M55.174,297.512H53.456a2.156,2.156,0,1,1,0-4.311h1.718a2.156,2.156,0,1,1,0,4.311ZM53.456,294.5a.843.843,0,1,0,0,1.685h1.718a.843.843,0,1,0,0-1.685Z" transform="translate(-45.686 -261.115)" fill="#3b4157"/>
      <path id="Path_24441" data-name="Path 24441" d="M43.226,103.632h-8.47a.659.659,0,0,1-.657-.657V99.857a.659.659,0,0,1,.657-.657h8.47a.659.659,0,0,1,.657.657v3.119A.652.652,0,0,1,43.226,103.632Zm-7.813-1.313H42.57v-1.806H35.413Z" transform="translate(-30.368 -88.345)" fill="#3b4157"/>
      <path id="Path_24442" data-name="Path 24442" d="M97.254,10.18H85.49a2.09,2.09,0,1,1,0-4.18H97.254a2.09,2.09,0,1,1,0,4.18Z" transform="translate(-74.274 -5.343)" fill="#f76fd3"/>
      <path id="Path_24443" data-name="Path 24443" d="M137.917,302.2H136.2a1.5,1.5,0,0,1,0-3h1.718a1.5,1.5,0,0,1,0,3Z" transform="translate(-119.96 -266.459)" fill="#f76fd3"/>
      <rect id="Rectangle_3133" data-name="Rectangle 3133" width="8.47" height="3.119" transform="translate(12.869 11.512)" fill="#f76fd3"/>
      <path id="Path_24444" data-name="Path 24444" d="M91.91,5.493H80.147a2.747,2.747,0,1,1,0-5.493H91.91a2.747,2.747,0,0,1,0,5.493ZM80.147,1.313a1.434,1.434,0,1,0,0,2.867H91.91a1.434,1.434,0,0,0,0-2.867Z" transform="translate(-68.93 0)" fill="#3b4157"/>
      <path id="Path_24445" data-name="Path 24445" d="M116.492,60.633a.652.652,0,0,1-.547-.3l-4.235-6.413a.7.7,0,0,1-.109-.361V38.857a.657.657,0,1,1,1.313,0v14.51l3.578,5.417,3.578-5.417V38.857a.657.657,0,0,1,1.313,0V53.564a.611.611,0,0,1-.109.361l-4.235,6.413A.652.652,0,0,1,116.492,60.633Z" transform="translate(-99.388 -34.02)" fill="#3b4157"/>
      <path id="Path_24446" data-name="Path 24446" d="M150.957,239.287a.658.658,0,0,1-.657-.657v-6.774a.657.657,0,1,1,1.313,0v6.774A.658.658,0,0,1,150.957,239.287Z" transform="translate(-133.853 -205.9)" fill="#3b4157"/>
      <path id="Path_24447" data-name="Path 24447" d="M132.574,297.512h-1.718a2.156,2.156,0,1,1,0-4.311h1.718a2.156,2.156,0,1,1,0,4.311Zm-1.718-3.009a.843.843,0,1,0,0,1.685h1.718a.843.843,0,1,0,0-1.685Z" transform="translate(-114.616 -261.115)" fill="#3b4157"/>
      <path id="Path_24448" data-name="Path 24448" d="M120.726,103.632h-8.47a.659.659,0,0,1-.657-.657V99.857a.659.659,0,0,1,.657-.657h8.47a.658.658,0,0,1,.657.657v3.119A.659.659,0,0,1,120.726,103.632Zm-7.813-1.313h7.157v-1.806h-7.157Z" transform="translate(-99.388 -88.345)" fill="#3b4157"/>
    </g>
  </g>
</svg>
