<svg xmlns="http://www.w3.org/2000/svg" width="65" height="65" viewBox="0 0 65 65">
  <g id="Group_44258" data-name="Group 44258" transform="translate(2933 2268)">
    <rect id="Rectangle_5484" data-name="Rectangle 5484" width="65" height="65" rx="5" transform="translate(-2933 -2268)" fill="#d1dde9"/>
    <path id="Path_29852" data-name="Path 29852" d="M-10885.683,858.821a15.082,15.082,0,0,1,7.5.832,8.161,8.161,0,0,1,5.223,5.572s1.316,3.4,1.5,3.746a16.723,16.723,0,0,1-.236,3.258l-2.146,5.588s-3.428,2.232-4.345,2.887-6.9,2.053-9.6.728-5.669-5.076-5.669-5.076a13.85,13.85,0,0,1-2.175-2.57,16.878,16.878,0,0,1-.709-5.077,18.081,18.081,0,0,1,2.648-4.225c.449-.4,2.593-3.385,3.072-3.634S-10885.683,858.821-10885.683,858.821Z" transform="translate(7981 -3106)" fill="#6ca3d8"/>
    <g id="Group_44195" data-name="Group 44195" transform="translate(-3720.346 -2642.209)">
      <path id="Path_25171" data-name="Path 25171" d="M812.2,422.954c-.852.7-1.333.271-1.456-.449-.248-1.44-.376-2.905-.487-4.364a5.977,5.977,0,0,1,.219-1.387c-1.473-1.721-2.871-3.46-4.38-5.1-2.438-2.643-2.3-7.853.223-10.408,1.437-1.458,2.665-3.123,4.062-4.785,0-1.4-.036-2.919.022-4.435a3.162,3.162,0,0,1,.477-1.322c.31-.557.756-.726,1.369-.1-.417,1.554-1.114,3.172-.424,4.98.4-.133.782-.244,1.154-.392,7.379-2.926,14.755.581,17.034,8.168a5.007,5.007,0,0,0,3.627,3.739,5.125,5.125,0,0,1,1.027.561c-.857,1.211-1.083,1.191-4.008-.253l-1.753,5.61c3.423.654,3.423.654,3.695,1.931a11.225,11.225,0,0,1-1.725-.094,5.343,5.343,0,0,0-4.662,1.084,12.494,12.494,0,0,1-13.793,1.744,2.362,2.362,0,0,0-.573-.079C811.194,419.459,811.856,421.212,812.2,422.954Zm-3.51-10.655a10.723,10.723,0,0,0,12.477,4.761,10.87,10.87,0,0,0,7.786-11.018,11.03,11.03,0,0,0-8.454-10.173c-5.245-1.21-10.119,1.557-11.742,5.05C812.734,404.643,812.342,408.492,808.691,412.3Zm-.549-10.233c-1.969,1.071-2.693,2.987-2.368,5.382.294,2.165.8,2.972,2.323,3.349A9.605,9.605,0,0,1,808.142,402.066Zm1.232,1.481a5.109,5.109,0,0,0-.019,5.9A6.957,6.957,0,0,0,809.375,403.547Z" transform="translate(0 0)" fill="#3b4157"/>
      <path id="Path_25172" data-name="Path 25172" d="M840.159,418.2a2.172,2.172,0,0,1,3.288.808C842.3,419.7,841.3,419.483,840.159,418.2Z" transform="translate(-9.892 -7.611)" fill="#3b4157"/>
      <path id="Path_25176" data-name="Path 25176" d="M823.247,401.132c.832-.772,1.747-.482,2.56-.324a8.826,8.826,0,0,1,6.122,12.432,8.559,8.559,0,0,1-7.068,4.963c-.649.073-1.476.25-1.579-1.065.541-.137,1.073-.32,1.62-.4a7.358,7.358,0,0,0,6.407-7.132,7.284,7.284,0,0,0-6.255-7.433C824.4,402.059,823.575,402.241,823.247,401.132Z" transform="translate(-5.221 -2.876)" fill="#3b4157"/>
    </g>
  </g>
</svg>
