<svg xmlns="http://www.w3.org/2000/svg" width="65" height="65" viewBox="0 0 65 65">
  <g id="Group_44252" data-name="Group 44252" transform="translate(3541 2958)">
    <rect id="Rectangle_5496" data-name="Rectangle 5496" width="65" height="65" rx="5" transform="translate(-3541 -2958)" fill="#c5e1fb"/>
    <path id="Path_29857" data-name="Path 29857" d="M-11502.5,165.78a29.005,29.005,0,0,0,4.157,0,5.718,5.718,0,0,0,.749,2.225s.6,1,2.932,1.065,14.567.077,15.476,0,2.718-.111,3.637.577,2.242,2.888,1.52,4.7a6.463,6.463,0,0,1-2.308,2.8l1.086,1a4.446,4.446,0,0,1,1.518,2.9,4.218,4.218,0,0,1-2.373,3.953c-.992.31-.463.881-.463.881l2.146,1.606s.869,2.479.395,3.466-1.728,2.76-3.447,2.7-18.47,0-18.47,0-2.353.762-2.4,1.623-4.157.541-4.157.541a29.812,29.812,0,0,1,1.517-4.088c.38-.417,1.5-2.029,1.5-2.029s-3.84-.2-4.516-1.3-1.662-2.566-1.144-3.79a15.207,15.207,0,0,1,2.646-3.565c.179-.063-2.478-1.42-2.646-2.511s.1-4.737,3.118-5.666,3.685.315,3.685.315l-2.641-2.825Z" transform="translate(7981 -3106)" fill="#4da6f8"/>
    <g id="Group_44208" data-name="Group 44208" transform="translate(-4010.389 -3396.662)">
      <path id="Path_24836" data-name="Path 24836" d="M494.459,454.977c.31.137.718.192.876.42a2.409,2.409,0,0,1,.233,1.057c.237,2.086.675,2.5,2.808,2.529,2.1.025,4.191.011,6.287.012,3.267,0,6.534.042,9.8-.015,2.219-.039,4.054.615,5.069,2.678a4.754,4.754,0,0,1-1.047,5.764,2.3,2.3,0,0,0-.268.447c2.29,3.073,2.684,4.683-.034,8.306.3.355.635.7.907,1.1a4.727,4.727,0,0,1,.514,4.9,4.547,4.547,0,0,1-4.042,2.8c-1.411.1-2.834.038-4.251.039-4.253,0-8.506.029-12.758-.013-1.5-.015-2.681.244-3.077,1.954-.071.307-.6.506-1.03.84-.534-2.244.465-3.845,2.418-4.223a9.828,9.828,0,0,1,1.843-.086q7.674-.01,15.348-.009a9.584,9.584,0,0,0,1.841-.094,3.248,3.248,0,0,0,2.619-3.334,3.286,3.286,0,0,0-2.848-3.149,12.226,12.226,0,0,0-1.661-.047q-10.17,0-20.341-.008c-.709,0-1.419-.09-2.128-.138l-.217-.414c.256-.306.46-.777.781-.878a5.573,5.573,0,0,1,1.649-.094q10.077,0,20.155,0a11.29,11.29,0,0,0,1.845-.071,3.305,3.305,0,0,0,2.772-3.408,3.266,3.266,0,0,0-2.9-3.1,14.7,14.7,0,0,0-1.847-.052q-10.077-.006-20.155-.006a7.741,7.741,0,0,1-1.474-.059c-.683-.135-.927-.551-.375-1.461h2.012q10.077,0,20.155,0a11.586,11.586,0,0,0,1.662-.047,3.345,3.345,0,0,0,2.921-3.3,3.26,3.26,0,0,0-2.939-3.256,12.333,12.333,0,0,0-1.661-.046q-7.4-.006-14.793,0c-.37,0-.74.007-1.109,0C494.8,460.414,493.369,458.271,494.459,454.977Z" transform="translate(-1.799 -0.096)" fill="#3b4157"/>
      <path id="Path_24837" data-name="Path 24837" d="M490.513,480.977c-5.416-.612-6.562-5.891-3.124-9.059-1.456-1.568-2.524-3.338-1.729-5.59a4.813,4.813,0,0,1,4.865-3.366c-.7-1.329-1.474-2.543-2.006-3.854a6.943,6.943,0,0,1-.06-4.446c.527.385.922.54,1.084.827a2.633,2.633,0,0,1,.146,1.083c.267,4.205,2.546,6.388,6.745,6.4,5.239.017,10.478-.007,15.717.023a11.71,11.71,0,0,1,1.978.344c-.2,1.294-.972,1.154-1.621,1.161-1.787.019-3.574.006-5.362.006q-7.859,0-15.717,0a12.689,12.689,0,0,0-1.661.055,3.33,3.33,0,0,0-2.814,2.993,3.208,3.208,0,0,0,2.159,3.3,7.282,7.282,0,0,0,2.179.263c6.9.021,13.806.006,20.709.031.729,0,1.638-.325,2.1.712-.3,1-1.131.791-1.819.795-3.266.018-6.533.008-9.8.008q-5.546,0-11.094,0a10.968,10.968,0,0,0-1.659.065,3.322,3.322,0,0,0-2.792,3.21,3.385,3.385,0,0,0,2.91,3.307,15.239,15.239,0,0,0,1.847.046c6.841,0,13.683,0,20.524.014.727,0,1.669-.274,1.923,1.2a14.853,14.853,0,0,1-2.083.306c-5.177.024-10.354.006-15.532.015-4,.007-6,1.645-6.825,5.544a6.957,6.957,0,0,1-.458,1.14C487.565,486.688,487.726,485.938,490.513,480.977Z" fill="#3b4157"/>
    </g>
  </g>
</svg>
